<svg id="Home" xmlns="http://www.w3.org/2000/svg" width="50" height="45" viewBox="0 0 50 45">
  <g id="Path_2" data-name="Path 2" transform="translate(7.472 28.804)" fill="#293348">
    <path d="M 33.55535507202148 14.69631862640381 L 1.499995589256287 14.69631862640381 L 1.499995589256287 1.499998807907104 L 33.55535507202148 1.499998807907104 L 33.55535507202148 14.69631862640381 Z" stroke="none"/>
    <path d="M 2.999996185302734 2.999999046325684 L 2.999996185302734 13.19631862640381 L 32.05535507202148 13.19631862640381 L 32.05535507202148 2.999999046325684 L 2.999996185302734 2.999999046325684 M -3.814697265625e-06 -1.9073486328125e-06 L 35.05535507202148 -1.9073486328125e-06 L 35.05535507202148 16.19631958007812 L -3.814697265625e-06 16.19631958007812 L -3.814697265625e-06 -1.9073486328125e-06 Z" stroke="none" fill="#fff"/>
  </g>
  <g id="Polygon_2" data-name="Polygon 2" fill="#293348">
    <path d="M 46.9124870300293 30.29631996154785 L 3.087512016296387 30.29631996154785 L 25 2.426859617233276 L 46.9124870300293 30.29631996154785 Z" stroke="none"/>
    <path d="M 25 4.853710174560547 L 6.175014495849609 28.79631805419922 L 43.82498550415039 28.79631805419922 L 25 4.853710174560547 M 25 -1.9073486328125e-06 L 50 31.79631996154785 L 0 31.79631996154785 L 25 -1.9073486328125e-06 Z" stroke="none" fill="#fff"/>
  </g>
</svg>
