<svg xmlns="http://www.w3.org/2000/svg" width="1865.091" height="939.97" viewBox="0 0 1865.091 939.97">
  <path id="W" d="M-5518.7,4183.467l114.914-658.312H-5680.36l-126.6,705.056s-36.406,195.317,282.739,221.912,561.826-66.931,561.826-66.931,155.142,92.641,377.656,78.456,389.178-73.581,389.178-73.581,70.922-43.438,91.31-70.034,34.573-67.375,34.573-67.375l126.552-726.277h-284.572l-117.242,655.577s-70.032,44.327-219.853,39.006-226.946-44.326-226.946-44.326l119.235-650.7h-285.458l-116.132,650.7s-112.589,44.327-244.678,40.779S-5518.7,4183.467-5518.7,4183.467Z" transform="translate(5808.213 -3525.155)" fill="#0d6bb2" opacity="0.43" style="mix-blend-mode: luminosity;isolation: isolate"/>
</svg>
